<svg width="970" height="521" viewBox="0 0 970 521" fill="none" xmlns="http://www.w3.org/2000/svg">
<path d="M609 218L556.5 252L609 338.5H685L609 218Z" fill="url(#paint0_linear_8_140)"/>
<path d="M613.382 230.482C632.544 261.015 651.484 291.689 670.201 322.506C672.418 326.156 674.633 329.809 676.844 333.463C676.282 333.821 675.718 334.179 675.156 334.537C672.778 330.99 670.402 327.441 668.03 323.89C648.508 294.663 629.2 265.301 610.101 235.805C597.142 243.428 584.16 251.011 571.155 258.555C583.029 278.06 594.529 297.793 605.652 317.756C607.732 321.489 609.8 325.23 611.854 328.979C611.285 329.326 610.715 329.674 610.146 330.021C607.747 326.484 605.361 322.938 602.988 319.384C589.73 299.527 576.881 279.421 564.44 259.064L562.839 256.444L565.496 254.904C580.163 246.404 594.859 237.955 609.584 229.556L611.9 228.191L613.382 230.482Z" fill="url(#paint1_linear_8_140)"/>
<path d="M747.5 219H683L653.5 271H758.5L772 336.5H840.5L793.5 90L727.5 131.5L747.5 219Z" fill="url(#paint2_linear_8_140)"/>
<path d="M799.864 146.287C812.809 207.615 825.339 269.025 837.453 330.517L838.041 333.5H835C816.833 333.5 798.667 333.401 780.5 333.202L778.779 333.221L778.356 331.504C774.617 314.761 770.964 297.997 767.396 281.214C766.264 275.887 765.141 270.559 764.026 265.229C764.675 265.076 765.325 264.924 765.974 264.771C767.348 270.041 768.714 275.312 770.071 280.586C774.201 296.632 778.25 312.697 782.219 328.78C797.542 328.618 812.865 328.526 828.188 328.505L831.96 328.502C820.055 268.001 808.552 207.422 797.45 146.763C796.47 141.407 795.492 136.05 794.519 130.693C795.173 130.564 795.827 130.436 796.481 130.307C797.612 135.633 798.74 140.96 799.864 146.287Z" fill="url(#paint3_linear_8_140)"/>
<path d="M530.5 236.5L523.5 271.5C523.5 271.5 586 247.829 663.5 187.5C741 127.171 784.39 124 784.39 124L793.5 90H727L530.5 236.5Z" fill="url(#paint4_linear_8_140)"/>
<path d="M740 90C736.556 92.3581 724.919 99.3174 721.558 101.773C661.171 144.695 618.693 209.421 553.713 247.547C550.128 249.745 546.663 251.789 542.997 253.868C542.666 253.29 542.334 252.711 542.003 252.132C545.633 250.035 549.062 247.975 552.607 245.761C616.836 207.419 658.531 142.622 719.245 98.6329C722.62 96.127 727.041 92.4091 730.5 90C732 90 738.5 90 740 90Z" fill="url(#paint5_linear_8_140)"/>
<path d="M460.106 218.777L497 91L467.927 220.137C467.6 221.79 465.938 223 463.993 223C461.422 223 459.522 220.935 460.106 218.777Z" fill="url(#paint6_linear_8_140)"/>
<path d="M235 89.5H172.5C155 157 128 268.5 113 337C157.4 367.8 282 339 336.5 317.5C297.5 311.5 291 295.5 291 270C269.8 278.4 214.333 282.667 189.5 282.5L235 89.5Z" fill="url(#paint7_linear_8_140)"/>
<path d="M402.5 89.5L338 91.5L303.5 237C296.5 259.833 293.3 306 336.5 308C379.7 310 437.167 273.833 460 255.5L471.5 204.5C454.5 215 435.5 231.733 397 242C374.5 248 373.5 233.5 374 213.5C374.4 197.5 393.167 124.167 402.5 89.5Z" fill="url(#paint8_linear_8_140)"/>
<path d="M494.5 76C473.3 90 448 90.8333 438 89.5C429 127.5 418 165 410 217C430.4 217.4 453.167 205.167 462 199C469.833 170.167 487.3 105.2 494.5 76Z" fill="url(#paint9_linear_8_140)"/>
<path d="M587 87.5L521.5 89.5L459 339H518.5L542 253C561.333 242.667 584 226.5 621 191C658 155.5 697.5 112 733 90L658 89.5L560 187.5L587 87.5Z" fill="url(#paint10_linear_8_140)"/>
<path d="M473 143C463.212 168.447 452.419 180.846 427 197.5C440.202 196.009 447.512 193.847 460.5 187L473 143Z" fill="#91061D"/>
<path d="M528.5 270.5C518.712 295.947 499 320 476 328C489 328 498.5 329 509.5 324L528.5 270.5Z" fill="#91061D"/>
<path d="M372.5 287C320.9 286.6 315.333 248.5 319 229.5C319 229.5 309 268.5 319 283C329 297.5 346.5 296.5 372.5 287Z" fill="#91061D"/>
<path d="M328 317C291 313 290 292 288.377 280.5C288.377 280.5 288.15 300.636 293.499 308.5C298.849 316.364 313 320.5 328 317Z" fill="#91061D"/>
<path d="M178 94.1484C194.333 94.2832 210.667 94.4042 227 94.5L230.16 94.5186L229.436 97.5645C214.361 160.914 199.351 224.278 184.341 287.643C203.115 288.871 222.102 288.469 240.902 286.784C253.649 285.591 266.368 283.72 278.744 280.533C278.915 281.178 279.085 281.822 279.256 282.467C266.765 285.819 253.962 287.83 241.135 289.159C221.62 291.1 202.002 291.671 182.389 290.475L180.677 290.354L181.06 288.666C191.952 240.612 202.845 192.558 213.71 144.498L223.867 99.5186C209.347 99.6065 194.827 99.7144 180.307 99.833C163.762 176.653 147.515 253.54 130.345 330.22C175.293 341.172 223.986 337.64 270.259 328.876C282.818 326.424 295.313 323.46 307.698 320.047C307.899 320.682 308.101 321.318 308.302 321.953C296.154 326.293 283.791 330.113 271.269 333.336C223.591 345.244 172.826 350.688 123.686 337.803L119.696 336.582L120.609 332.516C120.804 331.645 120.999 330.774 121.194 329.903C138.666 251.941 157.103 174.194 175.218 96.376L175.74 94.1299L178 94.1484Z" fill="url(#paint11_linear_8_140)"/>
<path d="M723.329 92L718.114 96.4092C665.362 141.576 617.458 192.676 562.78 236.412C556.973 240.625 551.475 245.113 544.259 247.466C544.086 246.822 543.914 246.178 543.741 245.534C550.059 243.317 555.661 238.693 561.233 234.411C612.796 191.139 658.752 141.37 709.781 96.9961C693.342 96.9874 676.903 96.9482 660.464 96.876C632.786 124.025 604.985 151.049 577.059 177.946C571.944 182.872 566.826 187.794 561.703 192.711C561.234 192.237 560.766 191.763 560.297 191.289C565.266 186.217 570.239 181.149 575.217 176.086C602.628 148.201 630.167 120.443 657.831 92.8135L658.514 92.1318L659.5 92.127C673.75 92.0633 688 92.0237 702.25 92.0078L723.329 92Z" fill="url(#paint12_linear_8_140)"/>
<path d="M389.446 400L393.793 373.818H398.536L394.854 396.024H406.385L405.72 400H389.446Z" fill="#082684"/>
<path d="M415.624 400H410.561L424.125 373.818H429.98L434.864 400H429.801L426.285 379.187H426.081L415.624 400ZM417.49 389.734H431.297L430.658 393.544H416.851L417.49 389.734Z" fill="#082684"/>
<path d="M460.603 373.818H465.346L462.508 390.923C462.201 392.798 461.485 394.447 460.36 395.871C459.244 397.294 457.82 398.406 456.09 399.207C454.36 400 452.434 400.396 450.312 400.396C448.173 400.396 446.374 400 444.917 399.207C443.459 398.406 442.407 397.294 441.759 395.871C441.12 394.447 440.954 392.798 441.261 390.923L444.099 373.818H448.842L446.067 390.527C445.888 391.618 445.969 392.589 446.31 393.442C446.66 394.285 447.231 394.95 448.023 395.436C448.825 395.922 449.826 396.165 451.028 396.165C452.229 396.165 453.312 395.922 454.275 395.436C455.238 394.95 456.026 394.285 456.64 393.442C457.253 392.589 457.65 391.618 457.829 390.527L460.603 373.818Z" fill="#082684"/>
<path d="M493.457 373.818L489.11 400H484.891L475.521 382.166H475.316L472.337 400H467.594L471.941 373.818H476.185L485.543 391.665H485.786L488.739 373.818H493.457Z" fill="#082684"/>
<path d="M504.718 400H495.718L500.065 373.818H508.988C511.587 373.818 513.744 374.355 515.457 375.429C517.17 376.503 518.371 378.037 519.062 380.031C519.761 382.017 519.88 384.386 519.42 387.139C518.977 389.832 518.103 392.138 516.799 394.055C515.495 395.973 513.82 397.443 511.775 398.466C509.729 399.489 507.377 400 504.718 400ZM501.138 395.896H504.961C506.776 395.896 508.357 395.551 509.704 394.861C511.059 394.162 512.163 393.126 513.015 391.754C513.876 390.374 514.472 388.66 514.805 386.615C515.137 384.655 515.116 383.035 514.741 381.757C514.366 380.47 513.637 379.511 512.555 378.881C511.481 378.241 510.058 377.922 508.285 377.922H504.117L501.138 395.896Z" fill="#082684"/>
<path d="M523.244 400L527.591 373.818H537.409C539.42 373.818 541.052 374.168 542.305 374.866C543.558 375.565 544.431 376.545 544.926 377.807C545.42 379.06 545.527 380.521 545.245 382.192C544.973 383.862 544.376 385.315 543.456 386.551C542.544 387.778 541.338 388.729 539.838 389.402C538.346 390.075 536.595 390.412 534.583 390.412H527.591L528.255 386.474H534.622C535.798 386.474 536.787 386.312 537.588 385.989C538.389 385.656 539.02 385.175 539.48 384.544C539.948 383.905 540.26 383.121 540.413 382.192C540.558 381.263 540.502 380.47 540.247 379.814C540 379.149 539.527 378.646 538.828 378.305C538.137 377.956 537.204 377.781 536.028 377.781H531.681L527.987 400H523.244ZM538.738 388.136L543.251 400H537.958L533.561 388.136H538.738Z" fill="#082684"/>
<path d="M549.776 373.818H555.132L559.62 385.401H559.901L568.198 373.818H573.554L561.307 390.233L559.684 400H554.953L556.577 390.233L549.776 373.818Z" fill="#082684"/>
<path d="M593.376 400H584.376L588.723 373.818H597.646C600.246 373.818 602.402 374.355 604.115 375.429C605.828 376.503 607.03 378.037 607.72 380.031C608.419 382.017 608.538 384.386 608.078 387.139C607.635 389.832 606.761 392.138 605.457 394.055C604.153 395.973 602.479 397.443 600.433 398.466C598.388 399.489 596.036 400 593.376 400ZM589.797 395.896H593.619C595.435 395.896 597.016 395.551 598.362 394.861C599.717 394.162 600.821 393.126 601.673 391.754C602.534 390.374 603.131 388.66 603.463 386.615C603.795 384.655 603.774 383.035 603.399 381.757C603.024 380.47 602.295 379.511 601.213 378.881C600.139 378.241 598.716 377.922 596.943 377.922H592.776L589.797 395.896Z" fill="#082684"/>
<path d="M611.902 400L616.249 373.818H633.277L632.613 377.794H620.327L619.151 384.902H630.554L629.89 388.878H618.486L617.31 396.024H629.698L629.033 400H611.902Z" fill="#082684"/>
<path d="M637.741 377.794L638.406 373.818H659.295L658.63 377.794H650.538L646.856 400H642.151L645.833 377.794H637.741Z" fill="#082684"/>
<path d="M660.415 400L664.762 373.818H681.79L681.125 377.794H668.84L667.664 384.902H679.067L678.402 388.878H666.999L665.823 396.024H678.211L677.546 400H660.415Z" fill="#082684"/>
<path d="M683.722 400L688.069 373.818H697.887C699.899 373.818 701.531 374.168 702.783 374.866C704.036 375.565 704.91 376.545 705.404 377.807C705.899 379.06 706.005 380.521 705.724 382.192C705.451 383.862 704.854 385.315 703.934 386.551C703.022 387.778 701.816 388.729 700.316 389.402C698.825 390.075 697.073 390.412 695.062 390.412H688.069L688.734 386.474H695.1C696.276 386.474 697.265 386.312 698.066 385.989C698.867 385.656 699.498 385.175 699.958 384.544C700.427 383.905 700.738 383.121 700.891 382.192C701.036 381.263 700.981 380.47 700.725 379.814C700.478 379.149 700.005 378.646 699.306 378.305C698.616 377.956 697.683 377.781 696.506 377.781H692.16L688.465 400H683.722ZM699.217 388.136L703.729 400H698.437L694.039 388.136H699.217Z" fill="#082684"/>
<path d="M729.197 382.179C729.103 381.489 728.933 380.871 728.686 380.325C728.439 379.771 728.106 379.303 727.689 378.919C727.271 378.527 726.764 378.229 726.167 378.024C725.571 377.82 724.876 377.717 724.084 377.717C722.677 377.717 721.343 378.071 720.082 378.778C718.821 379.486 717.743 380.526 716.848 381.898C715.953 383.261 715.343 384.923 715.02 386.884C714.696 388.861 714.713 390.535 715.071 391.908C715.429 393.28 716.085 394.324 717.04 395.04C718.003 395.747 719.213 396.101 720.67 396.101C722.008 396.101 723.223 395.845 724.314 395.334C725.405 394.822 726.308 394.098 727.024 393.16C727.748 392.214 728.209 391.107 728.405 389.837L729.453 390.003H722.332L722.971 386.295H733.595L733.058 389.44C732.692 391.69 731.895 393.634 730.667 395.27C729.449 396.898 727.927 398.155 726.103 399.041C724.288 399.919 722.298 400.358 720.133 400.358C717.73 400.358 715.706 399.817 714.061 398.734C712.424 397.643 711.265 396.097 710.584 394.094C709.902 392.082 709.791 389.696 710.251 386.935C710.592 384.821 711.197 382.933 712.066 381.271C712.944 379.609 714.018 378.199 715.288 377.04C716.566 375.872 717.986 374.986 719.545 374.381C721.105 373.767 722.741 373.46 724.454 373.46C725.895 373.46 727.207 373.673 728.392 374.099C729.576 374.517 730.591 375.114 731.434 375.889C732.287 376.665 732.939 377.585 733.39 378.651C733.842 379.716 734.055 380.892 734.03 382.179H729.197Z" fill="#082684"/>
<path d="M737.333 400L741.679 373.818H758.708L758.043 377.794H745.758L744.581 384.902H755.985L755.32 388.878H743.917L742.741 396.024H755.128L754.464 400H737.333Z" fill="#082684"/>
<path d="M786.502 373.818L782.156 400H777.937L768.566 382.166H768.362L765.383 400H760.64L764.987 373.818H769.231L778.589 391.665H778.832L781.785 373.818H786.502Z" fill="#082684"/>
<path d="M791.295 377.794L791.96 373.818H812.849L812.184 377.794H804.092L800.41 400H795.705L799.387 377.794H791.295Z" fill="#082684"/>
<path d="M824.339 400L828.686 373.818H838.504C840.515 373.818 842.143 374.193 843.387 374.943C844.632 375.685 845.497 376.712 845.982 378.024C846.468 379.328 846.57 380.815 846.289 382.486C846.017 384.165 845.416 385.656 844.487 386.96C843.566 388.264 842.352 389.291 840.843 390.041C839.335 390.783 837.57 391.153 835.551 391.153H829.044L829.695 387.254H835.563C836.74 387.254 837.737 387.05 838.555 386.641C839.382 386.232 840.034 385.669 840.511 384.953C840.988 384.237 841.303 383.415 841.457 382.486C841.602 381.557 841.555 380.739 841.316 380.031C841.078 379.324 840.613 378.774 839.923 378.382C839.241 377.982 838.308 377.781 837.123 377.781H832.776L829.082 400H824.339Z" fill="#082684"/>
<path d="M874.429 387.216C873.969 389.994 873.061 392.364 871.706 394.324C870.359 396.276 868.714 397.771 866.771 398.811C864.836 399.842 862.753 400.358 860.52 400.358C858.176 400.358 856.165 399.812 854.486 398.722C852.807 397.622 851.596 396.05 850.855 394.004C850.122 391.959 849.994 389.504 850.471 386.641C850.932 383.871 851.835 381.501 853.182 379.533C854.528 377.564 856.177 376.06 858.129 375.02C860.081 373.98 862.186 373.46 864.444 373.46C866.771 373.46 868.765 374.01 870.427 375.109C872.098 376.2 873.3 377.773 874.033 379.827C874.774 381.881 874.906 384.344 874.429 387.216ZM869.763 386.641C870.078 384.706 870.048 383.074 869.673 381.744C869.307 380.415 868.655 379.413 867.717 378.74C866.78 378.058 865.625 377.717 864.253 377.717C862.77 377.717 861.398 378.088 860.136 378.83C858.883 379.562 857.818 380.636 856.94 382.051C856.071 383.466 855.474 385.187 855.15 387.216C854.81 389.159 854.831 390.791 855.214 392.112C855.598 393.433 856.263 394.43 857.209 395.104C858.155 395.768 859.309 396.101 860.673 396.101C862.148 396.101 863.511 395.734 864.764 395.001C866.017 394.268 867.078 393.199 867.947 391.793C868.825 390.386 869.43 388.669 869.763 386.641Z" fill="#082684"/>
<path d="M887.231 400H878.231L882.577 373.818H891.501C894.1 373.818 896.256 374.355 897.969 375.429C899.682 376.503 900.884 378.037 901.574 380.031C902.273 382.017 902.393 384.386 901.932 387.139C901.489 389.832 900.616 392.138 899.312 394.055C898.008 395.973 896.333 397.443 894.287 398.466C892.242 399.489 889.89 400 887.231 400ZM883.651 395.896H887.474C889.289 395.896 890.87 395.551 892.216 394.861C893.572 394.162 894.675 393.126 895.528 391.754C896.388 390.374 896.985 388.66 897.317 386.615C897.65 384.655 897.628 383.035 897.253 381.757C896.878 380.47 896.15 379.511 895.067 378.881C893.993 378.241 892.57 377.922 890.797 377.922H886.63L883.651 395.896Z" fill="#082684"/>
<path d="M923.105 381.143C923.139 379.959 922.776 379.051 922.018 378.42C921.268 377.79 920.19 377.474 918.784 377.474C917.795 377.474 916.921 377.624 916.163 377.922C915.413 378.212 914.808 378.616 914.347 379.136C913.887 379.648 913.602 380.232 913.491 380.888C913.397 381.425 913.444 381.893 913.632 382.294C913.819 382.695 914.105 383.035 914.488 383.317C914.88 383.598 915.323 383.832 915.818 384.02C916.321 384.207 916.832 384.365 917.352 384.493L919.704 385.107C920.642 385.337 921.536 385.648 922.389 386.04C923.241 386.423 923.978 386.918 924.6 387.523C925.231 388.119 925.691 388.839 925.981 389.683C926.271 390.527 926.318 391.516 926.122 392.649C925.866 394.183 925.248 395.534 924.268 396.702C923.296 397.861 922.018 398.768 920.433 399.425C918.856 400.072 917.019 400.396 914.923 400.396C912.894 400.396 911.181 400.081 909.784 399.45C908.386 398.811 907.363 397.886 906.715 396.676C906.076 395.466 905.872 393.996 906.102 392.266H910.768C910.674 393.178 910.823 393.936 911.215 394.541C911.616 395.146 912.191 395.598 912.941 395.896C913.691 396.195 914.561 396.344 915.549 396.344C916.58 396.344 917.514 396.19 918.349 395.884C919.184 395.568 919.866 395.134 920.394 394.58C920.931 394.017 921.259 393.361 921.379 392.611C921.498 391.937 921.4 391.375 921.085 390.923C920.769 390.472 920.279 390.097 919.615 389.798C918.958 389.491 918.174 389.219 917.262 388.98L914.424 388.213C912.37 387.651 910.811 386.807 909.745 385.682C908.688 384.557 908.313 383.057 908.62 381.182C908.876 379.631 909.519 378.28 910.551 377.129C911.582 375.97 912.873 375.071 914.424 374.432C915.975 373.784 917.671 373.46 919.512 373.46C921.37 373.46 922.943 373.784 924.23 374.432C925.525 375.08 926.471 375.983 927.068 377.142C927.673 378.293 927.873 379.626 927.669 381.143H923.105Z" fill="#082684"/>
<path d="M201.156 266.043L231.5 136L209.072 267.639C208.741 269.58 207.059 271 205.09 271C202.488 271 200.565 268.576 201.156 266.043Z" fill="url(#paint13_linear_8_140)"/>
<path d="M524.107 334.043L541.5 268L532.023 335.639C531.693 337.58 530.01 339 528.041 339C525.439 339 523.516 336.576 524.107 334.043Z" fill="url(#paint14_linear_8_140)"/>
<path d="M221.5 331.5C143.1 336.3 144 306 147.5 283L136 325C155 333 175 335.5 221.5 331.5Z" fill="#91061D"/>
<path d="M520 63.9962C547.858 53.735 583.247 42.6718 621.296 33.7008C737.178 3.30237 916.113 -29.1511 956 46.4965C1016.11 160.497 849.5 290.496 849.5 290.496L842 238.996C878.5 207.496 930.728 117.996 892 63.9962C846.454 0.488971 724.153 9.44988 621.296 33.7008C562.544 49.1126 520 63.9962 520 63.9962Z" fill="url(#paint15_linear_8_140)"/>
<path d="M520 63.9962C547.858 53.735 583.247 42.6718 621.296 33.7008C737.178 3.30237 916.113 -29.1511 956 46.4965C1016.11 160.497 849.5 290.496 849.5 290.496L842 238.996C878.5 207.496 930.728 117.996 892 63.9962C846.454 0.488971 724.153 9.44988 621.296 33.7008C562.544 49.1126 520 63.9962 520 63.9962Z" fill="url(#paint16_linear_8_140)"/>
<path d="M784 58.0667C694.736 36.5668 606.833 56.5667 551 65.0667C702 18.0668 781.5 23.5667 835.5 44.5667C889.5 65.5667 886.333 121.9 880 146.567C872.5 116.567 873.264 79.5667 784 58.0667Z" fill="url(#paint17_linear_8_140)"/>
<path d="M123.792 365C28.1925 327.4 93.2925 232 137.792 189C-6.70407 305 33.6928 406.5 133.293 428.5C232.893 450.5 379.793 369.333 440.793 326L453.793 271.5C381.296 331 219.392 402.6 123.792 365Z" fill="url(#paint18_linear_8_140)"/>
<path d="M62.5 304.5C62.3074 310.244 62.5816 316.036 63.3164 321.703C67.9027 376.488 123.442 403.03 172.899 399.401C223.718 397.879 273.628 383.302 322.965 367.142C328.361 365.349 333.873 363.47 339.5 361.5C334.187 364.206 328.96 366.79 323.819 369.256C276.763 391.437 226.823 409.732 173.139 411.399C121.154 416.7 57.2969 378.676 61.041 321.854C61.016 316.01 61.5115 310.162 62.5 304.5Z" fill="url(#paint19_linear_8_140)"/>
<path d="M88.296 436C-28.504 370.4 54.0736 264 107.796 206C39.7958 266.81 -54.6042 396 39.7958 472C134.196 548 346.129 476 440.296 430.5C371.629 459.667 205.096 501.6 88.296 436Z" fill="url(#paint20_linear_8_140)"/>
<path d="M179 440C226.167 438.667 335.5 435.5 371.5 408.5C362 444 213 444.5 179 440Z" fill="url(#paint21_linear_8_140)"/>
<path d="M143.5 519C220 516.846 384.4 472.6 460 435C349.5 489.958 232.5 528.5 143.5 519Z" fill="url(#paint22_linear_8_140)"/>
<path d="M854 310V303C896 270.5 908 251.5 936 220C917.2 257.6 873.5 295.667 854 310Z" fill="url(#paint23_linear_8_140)"/>
<path d="M491.312 83.415C488.196 84.835 483.973 87.5962 480.767 88.8203C469.885 93.1797 458.021 94.8514 446.412 95.3574C434.993 130.695 426.806 166.724 421.604 203.471C431.609 203.545 441.202 201.195 450.281 196.658C453.309 195.219 453.814 195.022 456.812 193.415C457.153 193.987 458.812 193.915 460.324 193.773C457.467 195.663 454.577 197.482 451.588 199.173C442.095 204.865 430.441 207.962 419.271 207.415L417 207.369L417.333 205.122C422.564 167.197 431.41 129.642 443.894 93.4561L444.228 92.4541L445.257 92.4258C457.131 92.179 468.887 90.85 479.99 86.7129C483.165 85.5849 486.285 84.3309 489.408 83C489.677 83.6099 490.812 83.415 491.312 83.415Z" fill="url(#paint24_linear_8_140)"/>
<path d="M397.737 97.4092C383.412 139.769 368.049 183.342 367.245 228.084C367.528 233.114 368.224 238.46 370.798 242.541C370.245 242.913 369.693 243.286 369.14 243.658C366.052 239.03 365.258 233.454 364.801 228.242C364.403 183.541 378.327 140.945 392.079 99.1934C377.364 99.9872 362.647 100.758 347.929 101.503C340.037 132.027 331.802 162.463 323.221 192.81C321.802 197.825 320.375 202.839 318.938 207.85L317 207.35C318.167 202.269 319.344 197.191 320.53 192.115C327.845 160.809 335.517 129.595 343.548 98.4746L344.007 96.6953L345.843 96.6025C362.343 95.7692 378.845 94.9667 395.348 94.1943L398.94 94L397.737 97.4092Z" fill="url(#paint25_linear_8_140)"/>
<path d="M315.547 227.365C315.165 229.463 314.771 231.613 314.393 233.733C311.411 253.071 306 275.647 317.073 290.831C328.873 303.573 350.416 297.693 367.27 293.01C369.255 292.419 371.308 291.774 373.429 291.072C373.619 291.572 373.81 292.072 374 292.572C371.943 293.487 369.944 294.338 368 295.125C351.541 301.103 329.361 309.907 313.448 293.97C300.114 274.712 307.882 252.428 312.269 233.251C312.829 231.163 313.414 229.052 313.995 227C314.512 227.122 315.03 227.243 315.547 227.365Z" fill="url(#paint26_linear_8_140)"/>
<path d="M526.837 93.0107C543.837 93.1144 560.837 93.2283 577.837 93.3535L580.336 93.3721L579.684 95.7559C572.764 121.019 565.819 146.275 558.85 171.524C556.504 180.024 554.155 188.523 551.804 197.021C551.159 196.85 550.514 196.679 549.87 196.508C552.052 187.964 554.237 179.422 556.424 170.88C562.715 146.311 569.029 121.749 575.366 97.1924C559.782 97.3062 544.197 97.4112 528.612 97.5068C509.862 174.984 490.882 252.404 471.671 329.767C485.051 329.779 498.431 329.857 511.811 330C517.019 312.859 522.339 295.75 527.772 278.675C530.447 270.27 533.148 261.874 535.877 253.485C536.517 253.672 537.157 253.858 537.797 254.044C535.596 262.586 533.368 271.121 531.113 279.647C526.354 297.644 521.473 315.605 516.471 333.531L515.864 335.53L513.837 335.508C498.504 335.679 483.17 335.765 467.837 335.765H464L464.926 332.041C484.592 252.874 504.5 173.767 524.649 94.7207L525.088 93L526.837 93.0107Z" fill="url(#paint27_linear_8_140)"/>
<defs>
<linearGradient id="paint0_linear_8_140" x1="649.267" y1="222.644" x2="611.923" y2="308.822" gradientUnits="userSpaceOnUse">
<stop stop-color="#00B9E7"/>
<stop offset="1" stop-color="#0021A6"/>
</linearGradient>
<linearGradient id="paint1_linear_8_140" x1="578.766" y1="233.089" x2="545.197" y2="333.372" gradientUnits="userSpaceOnUse">
<stop stop-color="#62ABFF" stop-opacity="0.31"/>
<stop offset="1" stop-color="#D8F3FF" stop-opacity="0.69"/>
</linearGradient>
<linearGradient id="paint2_linear_8_140" x1="788.5" y1="99.5" x2="695.469" y2="252.224" gradientUnits="userSpaceOnUse">
<stop stop-color="#00B9E7"/>
<stop offset="1" stop-color="#0021A6"/>
</linearGradient>
<linearGradient id="paint3_linear_8_140" x1="774.367" y1="139.664" x2="667.839" y2="247.796" gradientUnits="userSpaceOnUse">
<stop stop-color="#62ABFF" stop-opacity="0.31"/>
<stop offset="1" stop-color="#D8F3FF" stop-opacity="0.69"/>
</linearGradient>
<linearGradient id="paint4_linear_8_140" x1="718.42" y1="96.9949" x2="674.741" y2="237.604" gradientUnits="userSpaceOnUse">
<stop stop-color="#00B9E7"/>
<stop offset="1" stop-color="#0021A6"/>
</linearGradient>
<linearGradient id="paint5_linear_8_140" x1="710.5" y1="81.5" x2="530.264" y2="209.089" gradientUnits="userSpaceOnUse">
<stop stop-color="#162547" stop-opacity="0.69"/>
<stop offset="1" stop-color="#62ABFF" stop-opacity="0.31"/>
</linearGradient>
<linearGradient id="paint6_linear_8_140" x1="498.976" y1="93.5556" x2="480.638" y2="206.988" gradientUnits="userSpaceOnUse">
<stop stop-color="#BBC9D4"/>
<stop offset="1" stop-color="#9AD8FF"/>
</linearGradient>
<linearGradient id="paint7_linear_8_140" x1="423.25" y1="76" x2="348.5" y2="350" gradientUnits="userSpaceOnUse">
<stop stop-color="#ED001E"/>
<stop offset="1" stop-color="#A60420"/>
</linearGradient>
<linearGradient id="paint8_linear_8_140" x1="423.25" y1="76" x2="348.5" y2="350" gradientUnits="userSpaceOnUse">
<stop stop-color="#ED001E"/>
<stop offset="1" stop-color="#A60420"/>
</linearGradient>
<linearGradient id="paint9_linear_8_140" x1="423.25" y1="76" x2="348.5" y2="350" gradientUnits="userSpaceOnUse">
<stop stop-color="#ED001E"/>
<stop offset="1" stop-color="#A60420"/>
</linearGradient>
<linearGradient id="paint10_linear_8_140" x1="423.25" y1="76" x2="348.5" y2="350" gradientUnits="userSpaceOnUse">
<stop stop-color="#ED001E"/>
<stop offset="1" stop-color="#A60420"/>
</linearGradient>
<linearGradient id="paint11_linear_8_140" x1="146.046" y1="105.694" x2="43.6234" y2="320.075" gradientUnits="userSpaceOnUse">
<stop stop-color="#FF6276" stop-opacity="0.31"/>
<stop offset="1" stop-color="#FFD8DF" stop-opacity="0.69"/>
</linearGradient>
<linearGradient id="paint12_linear_8_140" x1="568.831" y1="99.1596" x2="522.642" y2="247.841" gradientUnits="userSpaceOnUse">
<stop stop-color="#FF6276" stop-opacity="0.31"/>
<stop offset="1" stop-color="#FFD8DF" stop-opacity="0.79"/>
</linearGradient>
<linearGradient id="paint13_linear_8_140" x1="240.5" y1="139" x2="215.75" y2="271" gradientUnits="userSpaceOnUse">
<stop stop-color="#BBC9D4"/>
<stop offset="1" stop-color="#9AD8FF"/>
</linearGradient>
<linearGradient id="paint14_linear_8_140" x1="563.451" y1="207" x2="538.701" y2="339" gradientUnits="userSpaceOnUse">
<stop stop-color="#BBC9D4"/>
<stop offset="1" stop-color="#9AD8FF"/>
</linearGradient>
<linearGradient id="paint15_linear_8_140" x1="744.539" y1="5.33088e-06" x2="637.29" y2="268.808" gradientUnits="userSpaceOnUse">
<stop stop-color="#D20A23"/>
<stop offset="1" stop-color="#CC0023"/>
</linearGradient>
<linearGradient id="paint16_linear_8_140" x1="744.72" y1="1.30279e-05" x2="637.534" y2="268.868" gradientUnits="userSpaceOnUse">
<stop stop-color="#ED001E"/>
<stop offset="1" stop-color="#A60420"/>
</linearGradient>
<linearGradient id="paint17_linear_8_140" x1="1026" y1="147" x2="913.388" y2="-70.9808" gradientUnits="userSpaceOnUse">
<stop stop-color="#00B9E7"/>
<stop offset="1" stop-color="#082080"/>
</linearGradient>
<linearGradient id="paint18_linear_8_140" x1="129.5" y1="334.5" x2="289.105" y2="398.307" gradientUnits="userSpaceOnUse">
<stop stop-color="#00B9E7"/>
<stop offset="1" stop-color="#0021A6"/>
</linearGradient>
<linearGradient id="paint19_linear_8_140" x1="99.8081" y1="309.446" x2="84.5235" y2="419.948" gradientUnits="userSpaceOnUse">
<stop stop-color="#62ABFF" stop-opacity="0.5"/>
<stop offset="1" stop-color="#D8F3FF" stop-opacity="0.69"/>
</linearGradient>
<linearGradient id="paint20_linear_8_140" x1="75" y1="264" x2="177.702" y2="583.375" gradientUnits="userSpaceOnUse">
<stop stop-color="#00B9E7"/>
<stop offset="1" stop-color="#0021A6"/>
</linearGradient>
<linearGradient id="paint21_linear_8_140" x1="317.971" y1="409.79" x2="315.701" y2="438.039" gradientUnits="userSpaceOnUse">
<stop stop-color="#00B9E7"/>
<stop offset="1" stop-color="#082080"/>
</linearGradient>
<linearGradient id="paint22_linear_8_140" x1="301.75" y1="435" x2="286.902" y2="524.175" gradientUnits="userSpaceOnUse">
<stop stop-color="#D20A23"/>
<stop offset="1" stop-color="#CC0023"/>
</linearGradient>
<linearGradient id="paint23_linear_8_140" x1="895" y1="220" x2="850.185" y2="286.2" gradientUnits="userSpaceOnUse">
<stop stop-color="#D20A23"/>
<stop offset="1" stop-color="#CC0023"/>
</linearGradient>
<linearGradient id="paint24_linear_8_140" x1="427.382" y1="88.7325" x2="369.743" y2="184.619" gradientUnits="userSpaceOnUse">
<stop stop-color="#FF6276" stop-opacity="0.31"/>
<stop offset="1" stop-color="#FFD8DF" stop-opacity="0.69"/>
</linearGradient>
<linearGradient id="paint25_linear_8_140" x1="328.448" y1="100.892" x2="256.495" y2="210.673" gradientUnits="userSpaceOnUse">
<stop stop-color="#FF6276" stop-opacity="0.31"/>
<stop offset="1" stop-color="#FFD8DF" stop-opacity="0.69"/>
</linearGradient>
<linearGradient id="paint26_linear_8_140" x1="315.5" y1="230.5" x2="287.965" y2="299.154" gradientUnits="userSpaceOnUse">
<stop stop-color="#FF6276" stop-opacity="0.31"/>
<stop offset="1" stop-color="#FFD8DF" stop-opacity="0.69"/>
</linearGradient>
<linearGradient id="paint27_linear_8_140" x1="480.253" y1="104.18" x2="358.109" y2="267.29" gradientUnits="userSpaceOnUse">
<stop stop-color="#FF6276" stop-opacity="0.31"/>
<stop offset="1" stop-color="#FFD8DF" stop-opacity="0.69"/>
</linearGradient>
</defs>
</svg>
